# xmcd CD database file
#
# Track frame offsets:
#	183
#	12578
#	20950
#	31728
#
# Disc length: 572 seconds
#
# Revision: 10
# Processed by: cddbd v1.5.2PL0 Copyright (c) Steve Scherf et al.
# Submitted via: CDex 1.70beta2
#
DISCID=2b023a04
DTITLE=The Beatles - Baby It's You
DYEAR=1995
DGENRE=Rock
TTITLE0=Baby It's You
TTITLE1=I'll Follow The Sun
TTITLE2=Devil In Her Heart
TTITLE3=Boys
EXTD=Corps Ltd.\n\n\n\n\n\n\n\n\n\n\n\nshs 7 April 1995Capitol - EMI C2 7243 8 58349 2 9\n1995 EMI Records Ltd. - Apple YEAR: 1995
EXTT0=
EXTT1=
EXTT2=
EXTT3=
PLAYORDER=
